<?xml version="1.0" encoding="utf-8"?>
<svg viewBox="0 0 268 355" xmlns="http://www.w3.org/2000/svg">
  <path d="M 0 0 C 9.362 7.012 13.991 16.16 15.945 27.457 C 16.669 33.498 17.185 39.56 17.713 45.621 C 18.717 56.223 20.626 65.788 25.57 75.27 C 25.914 75.945 26.259 76.621 26.613 77.318 C 29.321 82.525 32.407 87.414 35.648 92.301 C 50.619 115.1 55.083 139.61 49.945 166.457 C 43.642 195.548 25.546 219.573 0.695 235.645 C -23.622 250.12 -54.442 255.187 -82.005 248.298 C -96.997 244.139 -111.201 237.626 -123.055 227.457 C -123.553 227.031 -124.05 226.606 -124.563 226.167 C -143.56 209.769 -155.577 188.634 -158.055 163.457 C -159.326 143.578 -153.887 124.769 -147.965 106.004 C -145.833 98.969 -145.006 93.469 -148.445 86.734 C -151.193 82.235 -154.2 78.171 -157.742 74.27 C -161.981 69.582 -165.193 64.866 -165.492 58.395 C -164.943 53.451 -164.092 49.289 -160.234 45.82 C -156.378 43.408 -152.538 43.136 -148.055 43.457 C -137.006 47.118 -130.308 54.346 -125.055 64.457 C -120.975 74.694 -120.172 84.587 -119.625 95.484 C -119.57 96.564 -119.57 96.564 -119.514 97.666 C -119.212 103.667 -119.212 103.667 -119.081 106.65 C -118.488 119.917 -117.737 133.324 -107.43 142.895 C -103.366 145.568 -96.727 146.379 -91.598 145.785 C -85.866 145.254 -82.052 143.004 -78.305 138.707 C -73.786 133.23 -72.593 127.754 -72.816 120.766 C -74.107 108.259 -82.836 98.618 -91.07 89.773 C -96.705 83.196 -98.615 76.003 -98.055 67.457 C -96.435 59.953 -94.277 53.794 -87.867 49.145 C -81.748 46.02 -75.403 45.833 -68.895 47.805 C -61.993 50.252 -57.752 53.956 -54.007 60.206 C -53.331 61.654 -52.795 65 -52.527 68.297 C -52.434 69.442 -52.387 70.59 -52.314 71.771 C -52.185 74.152 -52.057 76.532 -51.932 78.912 C -51.129 91.905 -49.242 104.932 -40.742 115.27 C -39.855 115.991 -38.968 116.713 -38.055 117.457 C -37.538 117.921 -37.021 118.385 -36.488 118.863 C -31.02 123.115 -25.509 123.195 -18.75 122.926 C -12.111 122.084 -7.484 120.14 -2.961 115.145 C 2.05 108.409 4.768 101.961 3.945 93.457 C 0.551 77.305 -8.82 64.023 -19.055 51.457 C -20.55 49.613 -22.042 47.766 -23.526 45.913 C -24.472 44.731 -25.426 43.556 -26.388 42.388 C -32.793 34.413 -34.019 26.513 -34.055 16.457 C -33.208 9.893 -29.708 5.919 -25.055 1.457 C -17.78 -3.788 -7.853 -4.499 0 0 Z" transform="matrix(1, 0, 0, 1, 202.0546875, 89.54296875)" style="stroke: rgb(0, 120, 144); stroke-width: 0px; paint-order: fill; fill: rgb(38, 80, 115);"/>
  <path d="M 0 0 C 5.943 5.177 9.171 12.426 11 19.938 C 11.134 22.463 11.171 24.995 11.125 27.523 C 11.117 28.225 11.11 28.926 11.102 29.648 C 11.07 32.614 11.013 35.579 10.959 38.544 C 10.823 46.661 11.03 54.009 13 61.938 C 13.613 65.223 16.761 68.918 17.827 71.656 C 18.237 72.71 17.273 70.651 7.12 70.668 C 1.149 70.678 -0.563 71.751 -8.054 76.238 C -9.703 71.454 -9.395 70.986 -11.875 66.375 C -16.538 57.705 -20.744 51.943 -28.082 45.641 C -35.102 39.407 -39.452 32.767 -40.348 23.242 C -40.543 14.689 -40.275 8.054 -34.812 1.188 C -23.707 -7.697 -11.726 -8.061 0 0 Z" transform="matrix(1, 0, 0, 1, 116.00000000000001, 63.0625)" style="fill: rgb(45, 149, 150);"/>
  <path d="M 0 0 C 7.148 2.797 11.624 7.589 14.926 14.445 C 20.254 27.634 24.724 43.354 18.985 57.116 C 17.637 59.498 15.971 62.268 13.453 63.387 C 7.926 64.847 4.298 64.198 -0.547 61.387 C -13.629 53.645 -21.777 41.697 -26.547 27.387 C -26.694 24.952 -26.768 22.513 -26.797 20.074 C -26.823 18.779 -26.848 17.483 -26.875 16.148 C -26.452 11.303 -25.134 8.073 -21.793 4.523 C -21.196 4.045 -20.599 3.567 -19.984 3.074 C -19.385 2.583 -18.786 2.092 -18.168 1.586 C -13.119 -2.149 -5.87 -1.413 0 0 Z" transform="matrix(1, 0, 0, 1, 152.546875, 8.61328125)" style="fill: rgb(45, 149, 150);"/>
  <path d="M0 0 C8.77988535 7.89419516 12.56878736 18.96296817 13.43359375 30.45703125 C13.76923814 40.40553106 13.76923814 40.40553106 10.21875 44.6015625 C5.68155303 46.78092005 1.46079275 46.99213206 -3.34375 45.6015625 C-13.94669393 41.33833375 -22.06549024 32.28604919 -27.34375 22.2890625 C-30.01736289 15.49465177 -30.22371644 6.98996011 -27.37109375 0.2890625 C-25.26511797 -3.27091622 -23.443128 -4.84447817 -19.53125 -6.1484375 C-11.65063755 -6.86485681 -6.12433897 -4.80814332 0 0 Z " transform="matrix(1, 0, 0, 1, 45.78125, 71.3984375)" style="fill: rgb(38, 80, 115);"/>
  <path d="M 83.977 169.951 C 93.926 174.276 98.065 174.775 105.897 176.544 C 108.718 181.392 115.918 186.249 120.636 194.434 C 126.385 204.409 125.833 212.86 124.522 219.783 C 122.858 225.134 120.367 227.801 115.861 230.9 C 110.022 233.591 105.32 232.921 99.243 230.93 C 93.591 228.447 92.114 224.868 89.687 219.225 C 87.574 213.577 85.917 204.728 85.408 191.163 C 85.276 187.667 85.625 180.213 83.977 169.951 Z" style="fill: rgb(45, 149, 150);"/>
  <path d="M -44.308 8.666 C -21.181 8.712 -14.676 7.812 4.458 4.18 C 5.192 6.476 6.73 12.115 5.923 17.005 C 4.889 23.273 1.059 29.173 -2.094 32.371 C -7.549 37.032 -13.07 37.542 -19.996 37.352 C -27.092 36.521 -32.463 33.518 -37 28 C -42.872 20.337 -42.95 18.929 -44.308 8.666 Z" transform="matrix(1, 0, 0, 1, 198, 172)" style="fill: rgb(45, 149, 150);"/>
  <path d="M 0 0 C 0.634 25.161 -5.8 49.285 -28.734 71.293 C -42.933 84.918 -68.903 93.589 -66.572 91.479 C -27.247 55.886 -18.305 20.898 -18 4 C -8.465 2.785 -6.289 1.887 0 0 Z" transform="matrix(1, 0, 0, 1, 237, 228.00000000000003)" style="fill: rgb(253, 253, 253);"/>
  <path d="M0 0 C5.97120938 3.31420898 9.17254397 7.77338539 12.125 13.8125 C13.59103518 21.28927942 13.714358 28.34554193 9.75 35 C7.3075492 37.00629887 5.60636915 37.0162601 2.4375 37.375 C-6.13157907 36.50356823 -12.51216725 30.00726142 -18.25 24 C-22.1692275 18.92805853 -22.88180861 13.88989626 -22.64453125 7.5625 C-22.05207741 3.71448298 -20.88054659 1.85602202 -18.25 -1 C-11.96947278 -3.09350907 -6.03309596 -2.71991316 0 0 Z " transform="matrix(1, 0, 0, 1, 27.25, 168)" style="fill: rgb(45, 149, 150);"/>
  <path d="M0 0 C5.81255982 1.86001914 9.01123335 5.85968145 12 11 C14.80976817 18.0880563 16.65300408 27.76119188 13.9375 35.125 C11.0538676 39.4039384 8.22108311 41.56544026 3.125 42.5625 C-2.96319116 41.46662559 -7.40422098 38.08820994 -11.3125 33.375 C-16.03395391 26.55655157 -17.84726929 18.19026979 -17 10 C-13.82911613 2.42511074 -8.00786788 -1.41504493 0 0 Z " transform="matrix(1, 0, 0, 1, 198, 38)" style="fill: rgb(38, 80, 115);"/>
</svg>
