<?xml version="1.0" encoding="utf-8"?>
<svg viewBox="0 0 268 355" xmlns="http://www.w3.org/2000/svg">
  <path d="M0 0 C9.36209093 7.01216851 13.99125423 16.16025673 15.9453125 27.45703125 C16.66912455 33.49842506 17.1848821 39.55993076 17.71289062 45.62109375 C18.71653207 56.22309619 20.62638645 65.78799529 25.5703125 75.26953125 C25.91441162 75.9454834 26.25851074 76.62143555 26.61303711 77.31787109 C29.32110039 82.52460818 32.40746046 87.41418394 35.64770508 92.30126953 C50.61877832 115.10041858 55.08266939 139.61040181 49.9453125 166.45703125 C43.64175281 195.54779066 25.54645078 219.57331835 0.6953125 235.64453125 C-23.62155636 250.11954313 -54.44193499 255.18689283 -82.00537109 248.29760742 C-96.99690585 244.13917817 -111.20091495 237.62552304 -123.0546875 227.45703125 C-123.55258789 227.03147949 -124.05048828 226.60592773 -124.56347656 226.16748047 C-143.56044446 209.76931606 -155.57744575 188.63389637 -158.0546875 163.45703125 C-159.32615801 143.57807885 -153.88723257 124.76875113 -147.96484375 106.00390625 C-145.83276559 98.96903086 -145.0055598 93.46894701 -148.4453125 86.734375 C-151.19313918 82.23511825 -154.20037697 78.17087762 -157.7421875 74.26953125 C-161.98063097 69.58242372 -165.19292802 64.86601759 -165.4921875 58.39453125 C-164.94287686 53.45073548 -164.09188706 49.28876218 -160.234375 45.8203125 C-156.37765134 43.40813229 -152.53799395 43.13587749 -148.0546875 43.45703125 C-137.00563768 47.11844659 -130.3077424 54.34617558 -125.0546875 64.45703125 C-120.9745152 74.69433102 -120.17171163 84.58726678 -119.625 95.484375 C-119.57014938 96.56441551 -119.57014938 96.56441551 -119.51419067 97.66627502 C-119.2116499 103.66718991 -119.2116499 103.66718991 -119.08056641 106.65014648 C-118.48835022 119.9172334 -117.73686177 133.32358371 -107.4296875 142.89453125 C-103.36595273 145.56804097 -100.01375014 145.64605281 -95.2421875 145.70703125 C-93.43814453 145.74570312 -93.43814453 145.74570312 -91.59765625 145.78515625 C-85.86592483 145.25432335 -82.05163493 143.00398931 -78.3046875 138.70703125 C-73.78564851 133.23031512 -72.59250469 127.75371045 -72.81640625 120.765625 C-74.10731499 108.25862388 -82.83582835 98.61840927 -91.0703125 89.7734375 C-96.70455037 83.19646298 -98.61505333 76.00261011 -98.0546875 67.45703125 C-96.43479617 59.95312286 -94.27657259 53.79447729 -87.8671875 49.14453125 C-81.74796333 46.01954284 -75.40313068 45.8327752 -68.89453125 47.8046875 C-61.99293818 50.25174916 -57.75238885 53.95646357 -54.0065918 60.20556641 C-52.83414207 62.97867011 -52.68595418 65.2912899 -52.52734375 68.296875 C-52.45708984 69.44349609 -52.38683594 70.59011719 -52.31445312 71.77148438 C-52.18486272 74.15158539 -52.05719872 76.53179223 -51.93164062 78.91210938 C-51.12905662 91.90529369 -49.24223255 104.93163862 -40.7421875 115.26953125 C-39.8553125 115.99140625 -38.9684375 116.71328125 -38.0546875 117.45703125 C-37.53777344 117.92109375 -37.02085937 118.38515625 -36.48828125 118.86328125 C-31.01996942 123.11510039 -25.50853987 123.19451047 -18.75 122.92578125 C-12.1112529 122.08365688 -7.48413142 120.14029766 -2.9609375 115.14453125 C2.04958904 108.40906935 4.76825738 101.96079504 3.9453125 93.45703125 C0.55090784 77.30513257 -8.81980345 64.02292594 -19.0546875 51.45703125 C-20.55034526 49.61300136 -22.04235031 47.76640417 -23.52587891 45.91259766 C-24.47204213 44.73139022 -25.42564745 43.55608771 -26.38818359 42.38818359 C-32.79345567 34.41301515 -34.01902884 26.5127738 -34.0546875 16.45703125 C-33.20766171 9.89258141 -29.70831446 5.91927528 -25.0546875 1.45703125 C-17.77951246 -3.78786238 -7.85348801 -4.49906297 0 0 Z " fill="#5F585F" transform="matrix(1, 0, 0, 1, 202.0546875, 89.54296875000001)"/>
  <path d="M0 0 C5.94343052 5.1770408 9.17091203 12.42648229 11 19.9375 C11.1339932 22.46293693 11.1705315 24.99485831 11.125 27.5234375 C11.11742676 28.22465729 11.10985352 28.92587708 11.10205078 29.64834595 C11.06973234 32.61385128 11.01348636 35.57877801 10.95898438 38.54394531 C10.8229208 46.66121198 11.03010501 54.00867265 13 61.9375 C12.98828125 64.83203125 12.98828125 64.83203125 12 66.9375 C9.41796875 68.44921875 9.41796875 68.44921875 6.1875 69.625 C5.12917969 70.02074219 4.07085937 70.41648437 2.98046875 70.82421875 C1.99691406 71.19160156 1.01335937 71.55898437 0 71.9375 C-0.68449219 72.33582031 -1.36898437 72.73414063 -2.07421875 73.14453125 C-4 73.9375 -4 73.9375 -6.5703125 73.97265625 C-9 72.9375 -9 72.9375 -10.5546875 70.05859375 C-10.99039063 68.84300781 -11.42609375 67.62742187 -11.875 66.375 C-15.43201454 57.19474689 -20.74380918 51.94269579 -28.08203125 45.640625 C-35.10222164 39.40681032 -39.45159 32.76666692 -40.34765625 23.2421875 C-40.54320675 14.6889786 -40.27485186 8.05445663 -34.8125 1.1875 C-23.70696867 -7.69692506 -11.72577021 -8.06146702 0 0 Z " fill="#8FB14D" transform="matrix(1, 0, 0, 1, 116, 63.062500000000014)"/>
  <path d="M0 0 C7.14762382 2.79743208 11.6244387 7.58867797 14.92578125 14.4453125 C20.25412679 27.63413279 24.09788592 45.02335691 18.359375 58.78515625 C17.01138229 61.16738474 15.97104318 62.26764401 13.453125 63.38671875 C7.92600719 64.84671214 4.29823753 64.19844068 -0.546875 61.38671875 C-13.62851129 53.6449635 -21.77675834 41.69706872 -26.546875 27.38671875 C-26.69390564 24.95223057 -26.76792839 22.51297105 -26.796875 20.07421875 C-26.82265625 18.77871094 -26.8484375 17.48320312 -26.875 16.1484375 C-26.45237232 11.30331305 -25.13384337 8.07265174 -21.79296875 4.5234375 C-21.19613281 4.04519531 -20.59929687 3.56695312 -19.984375 3.07421875 C-19.38496094 2.58308594 -18.78554687 2.09195312 -18.16796875 1.5859375 C-13.11892159 -2.14914076 -5.86960917 -1.41338748 0 0 Z " fill="#8CB24C" transform="matrix(1, 0, 0, 1, 152.546875, 8.61328125)"/>
  <path d="M0 0 C8.77988535 7.89419516 12.56878736 18.96296817 13.43359375 30.45703125 C13.76923814 40.40553106 13.76923814 40.40553106 10.21875 44.6015625 C5.68155303 46.78092005 1.46079275 46.99213206 -3.34375 45.6015625 C-13.94669393 41.33833375 -22.06549024 32.28604919 -27.34375 22.2890625 C-30.01736289 15.49465177 -30.22371644 6.98996011 -27.37109375 0.2890625 C-25.26511797 -3.27091622 -23.443128 -4.84447817 -19.53125 -6.1484375 C-11.65063755 -6.86485681 -6.12433897 -4.80814332 0 0 Z " fill="#615A61" transform="matrix(1, 0, 0, 1, 45.78125, 71.39843750000001)"/>
  <path d="M0 0 C4.11096855 0.72122255 6.79426839 1.51347846 9.5625 4.625 C15.73030164 14.89976264 19.45055199 24.96261627 17.09765625 37.00390625 C15.45838742 42.11570906 13.00388661 44.66407559 8.5625 47.625 C2.80907694 50.19567839 -2.57439149 50.40223748 -8.5625 48.5 C-14.13198368 46.12840869 -16.45966035 42.82919103 -18.8515625 37.4375 C-21.46955093 30.65120596 -23.3606662 24.89493379 -22.4375 17.625 C-20.41087692 13.28034399 -18.34908752 11.71335301 -14.0625 9.6875 C-10.50494261 7.89004646 -7.9861877 6.52832978 -5.6875 3.25 C-3.4375 0.625 -3.4375 0.625 0 0 Z " fill="#90B751" transform="matrix(1, 0, 0, 1, 107.4375, 183.375)"/>
  <path d="M0 0 C3.91964844 3.91964844 4.71858776 8.00866962 5.0234375 13.3515625 C4.95394565 21.20414204 3.51845919 26.67838156 -2.09375 32.37109375 C-7.54878801 37.03246844 -13.06998216 37.54226895 -19.99609375 37.3515625 C-27.09153997 36.52114617 -32.46307979 33.51787593 -37 28 C-42.87200762 20.33703006 -45.59235238 13.87253964 -45 4 C-44.67 3.34 -44.34 2.68 -44 2 C-42.58297487 2.14230808 -41.1663904 2.28900746 -39.75 2.4375 C-38.56664062 2.55931641 -38.56664062 2.55931641 -37.359375 2.68359375 C-35 3 -35 3 -33.1171875 3.515625 C-24.79660888 5.41922601 -16.83380159 4.4062756 -9.18359375 0.9140625 C-5.89021013 -0.4645632 -3.49114212 -0.69822842 0 0 Z " fill="#8EB74F" transform="matrix(1, 0, 0, 1, 198, 172)"/>
  <path d="M 0 0 C -1.063 25.161 -1.585 38.527 -15.202 57.385 C -31.579 80.065 -41.295 82.019 -66.245 93.377 C -55.779 84.446 -38.684 72.542 -26.78 43.511 C -23.25 34.902 -18.118 13.242 -18 4 C -8.774 2.005 -8.893 1.702 0 0 Z" transform="matrix(1, 0, 0, 1, 237, 228)" style="paint-order: stroke; stroke: rgb(255, 255, 255); fill: rgb(255, 255, 255);"/>
  <path d="M0 0 C5.97120938 3.31420898 9.17254397 7.77338539 12.125 13.8125 C13.59103518 21.28927942 13.714358 28.34554193 9.75 35 C7.3075492 37.00629887 5.60636915 37.0162601 2.4375 37.375 C-6.13157907 36.50356823 -12.51216725 30.00726142 -18.25 24 C-22.1692275 18.92805853 -22.88180861 13.88989626 -22.64453125 7.5625 C-22.05207741 3.71448298 -20.88054659 1.85602202 -18.25 -1 C-11.96947278 -3.09350907 -6.03309596 -2.71991316 0 0 Z " fill="#93BA49" transform="matrix(1, 0, 0, 1, 27.25, 168)"/>
  <path d="M0 0 C5.81255982 1.86001914 9.01123335 5.85968145 12 11 C14.80976817 18.0880563 16.65300408 27.76119188 13.9375 35.125 C11.0538676 39.4039384 8.22108311 41.56544026 3.125 42.5625 C-2.96319116 41.46662559 -7.40422098 38.08820994 -11.3125 33.375 C-16.03395391 26.55655157 -17.84726929 18.19026979 -17 10 C-13.82911613 2.42511074 -8.00786788 -1.41504493 0 0 Z " fill="#666165" transform="matrix(1, 0, 0, 1, 198, 38)"/>
</svg>
